<svg width="337" height="337" viewBox="0 0 337 337" fill="none" xmlns="http://www.w3.org/2000/svg">
<rect width="337" height="337" fill="#F5F5F5"/>
<path d="M21.8479 0.42839C14.1369 2.14195 6.42585 8.85339 2.42754 16.85L0 21.7051V168.5V315.295L2.42754 320.293C5.56907 326.719 10.2814 331.431 16.7072 334.572L21.7051 337H168.5H315.295L320.293 334.572C323.292 333.002 326.576 330.717 328.718 328.718C330.717 326.576 333.002 323.292 334.572 320.293L337 315.295V168.5V21.7051L334.572 16.7072C331.431 10.2814 326.719 5.56907 320.293 2.42754L315.295 0H169.928C83.536 0 23.2758 0.142797 21.8479 0.42839ZM317.151 12.7089C320.293 14.4225 322.72 16.9928 324.434 20.1343C325.576 22.4191 325.719 27.417 325.862 166.929C326.005 329.146 326.433 316.009 321.15 321.292C315.866 326.576 329.003 326.29 166.786 326.005C27.2742 325.862 22.2763 325.719 19.9915 324.577C16.7072 322.863 14.1369 320.293 12.5661 317.294L11.1381 314.724V168.5C11.1381 27.2742 11.1381 22.4191 12.4233 20.1343C14.7081 15.8504 18.1352 12.8517 22.7047 11.5665C23.5614 11.2809 89.6763 11.1381 169.5 11.1381L314.581 11.2809L317.151 12.7089Z" fill="black"/>
<path d="M48.6936 196.774C30.9869 196.917 30.8441 196.917 29.4161 198.487L27.9881 200.058V252.607C27.9881 288.021 28.1309 305.585 28.7021 306.442C29.1305 307.156 29.9873 308.012 30.7013 308.441C32.5576 309.44 304.585 309.44 306.299 308.441C307.013 308.012 307.869 307.156 308.298 306.442C308.726 305.585 309.012 287.735 309.012 253.036C309.012 196.345 309.155 198.202 305.442 197.345C304.014 196.917 80.5373 196.488 48.6936 196.774ZM61.6881 219.336V230.617H50.4072H39.1263V219.336V208.055H50.4072H61.6881V219.336ZM95.2453 219.336V230.617H83.9644H72.8263V219.336V208.055H84.1072H95.3881V219.336H95.2453ZM128.945 219.336V230.617H117.664H106.383V219.336V208.055H117.664H128.945V219.336ZM162.503 219.336V230.617H151.65H140.797V219.336V208.055H151.65H162.503V219.336ZM196.203 219.336V230.617H185.35H174.497V219.336V208.055H185.35H196.203V219.336ZM230.474 219.336V230.617H219.193H207.912V219.336V208.055H219.193H230.474V219.336ZM264.174 219.336V230.617H252.893H241.612V219.336V208.055H252.893H264.174V219.336ZM297.731 219.336V230.617H286.45H275.169V219.336V208.055H286.45H297.731V219.336ZM61.6881 253.036V264.317H50.4072H39.1263V253.036V241.755H50.4072H61.6881V253.036ZM95.2453 253.036V264.317H83.9644H72.8263V253.036V241.755H84.1072H95.3881V253.036H95.2453ZM128.945 253.036V264.317H117.664H106.383V253.036V241.755H117.664H128.945V253.036ZM162.503 253.036V264.317H151.65H140.797V253.036V241.755H151.65H162.503V253.036ZM196.203 253.036V264.317H185.35H174.497V253.036V241.755H185.35H196.203V253.036ZM230.474 253.036V264.317H219.193H207.912V253.036V241.755H219.193H230.474V253.036ZM264.174 253.036V264.317H252.893H241.612V253.036V241.755H252.893H264.174V253.036ZM297.731 253.036V264.317H286.45H275.169V253.036V241.755H286.45H297.731V253.036ZM61.6881 286.593V297.874H50.4072H39.1263V286.593V275.312H50.4072H61.6881V286.593ZM95.2453 286.593V297.874H83.9644H72.8263V286.593V275.312H84.1072H95.3881V286.593H95.2453ZM128.945 286.593V297.874H117.664H106.383V286.593V275.312H117.664H128.945V286.593ZM162.503 286.593V297.874H151.65H140.797V286.593V275.312H151.65H162.503V286.593ZM196.203 286.593V297.874H185.35H174.497V286.593V275.312H185.35H196.203V286.593ZM230.474 286.593V297.874H219.193H207.912V286.593V275.312H219.193H230.474V286.593ZM264.174 286.593V297.874H252.893H241.612V286.593V275.312H252.893H264.174V286.593ZM297.731 286.593V297.874H286.45H275.169V286.593V275.312H286.45H297.731V286.593Z" fill="black"/>
</svg>
