<?xml version="1.0" encoding="utf-8"?>
<!-- Svg Vector Icons : http://www.onlinewebfonts.com/icon -->
<!DOCTYPE svg PUBLIC "-//W3C//DTD SVG 1.1//EN" "http://www.w3.org/Graphics/SVG/1.1/DTD/svg11.dtd">
<svg version="1.1" xmlns="http://www.w3.org/2000/svg" xmlns:xlink="http://www.w3.org/1999/xlink" x="0px" y="0px" viewBox="0 0 256 256" enable-background="new 0 0 256 256" xml:space="preserve">
<metadata> Svg Vector Icons : http://www.onlinewebfonts.com/icon </metadata>
<g><g><g><path fill="#000000" d="M25.3,10.3c-5.4,1.2-10.8,5.9-13.6,11.5L10,25.2V128v102.8l1.7,3.5c2.2,4.5,5.5,7.8,10,10l3.5,1.7H128h102.8l3.5-1.7c2.1-1.1,4.4-2.7,5.9-4.1c1.4-1.5,3-3.8,4.1-5.9l1.7-3.5V128V25.2l-1.7-3.5c-2.2-4.5-5.5-7.8-10-10l-3.5-1.7L129,10C68.5,10,26.3,10.1,25.3,10.3z M232.1,18.9c2.2,1.2,3.9,3,5.1,5.2c0.8,1.6,0.9,5.1,1,102.8c0.1,113.6,0.4,104.4-3.3,108.1c-3.7,3.7,5.5,3.5-108.1,3.3c-97.7-0.1-101.2-0.2-102.8-1c-2.3-1.2-4.1-3-5.2-5.1l-1-1.8V128c0-98.9,0-102.3,0.9-103.9c1.6-3,4-5.1,7.2-6c0.6-0.2,46.9-0.3,102.8-0.3l101.6,0.1L232.1,18.9z"/><path fill="#000000" d="M34.7,34.7L33.3,36v12.8c0,16.6-0.4,15.8,7.6,16.1l4.2,0.1l0.2,30.6l0.2,30.7l1.1,0.9c1.6,1.3,3.8,1.2,5.3-0.3l1.2-1.2V95.2V64.8h4.8c7.2,0,6.7,1,6.8-15.2c0-7.3,0-13.5-0.2-14c-0.8-2-2.3-2.2-15.7-2.2H36L34.7,34.7z M56.9,49.1v7.9H49h-7.9v-7.5c0-4.2,0.1-7.7,0.3-7.9c0.1-0.2,3.7-0.3,7.9-0.3h7.5V49.1z"/><path fill="#000000" d="M85.9,34.7L84.6,36v30.3v30.3h-4.8c-7.3,0-6.8-1-6.8,15.7v13.5l1.2,1.1l1.1,1.2h13.2h13.3l1.3-1.3l1.3-1.3v-12.7c0-8.3-0.2-13.1-0.5-13.8c-0.8-1.7-2.1-2.2-6.9-2.3l-4.4-0.1l-0.2-30.6l-0.2-30.7l-1.1-0.9C89.5,33,87.5,33.1,85.9,34.7z M96.6,112.3v7.8h-7.9h-7.9v-7.8v-7.9h7.9h7.9V112.3z"/><path fill="#000000" d="M125.2,34.7l-1.3,1.3v16.4v16.4h-4.6c-4.2,0-4.6,0.1-5.8,1.2l-1.2,1.1v13.4v13.4l1.2,1.1c1,1.1,1.4,1.2,5.8,1.2h4.6v12.5v12.5l1.3,1.3c0.9,0.9,1.8,1.3,2.8,1.3c1,0,1.9-0.4,2.8-1.3l1.3-1.3v-12.5v-12.5h4.6c4.3,0,4.8-0.1,5.8-1.2l1.2-1.1V84.8c0-9.7-0.2-13.5-0.6-14c-1.1-1.4-2.6-1.8-6.7-1.8h-4.2l-0.1-16.7l-0.1-16.7l-1.3-1.1C128.8,33,126.9,33,125.2,34.7z M135.9,84.6v7.8H128h-7.9v-7.8v-7.9h7.9h7.9V84.6z"/><path fill="#000000" d="M152.9,34.7l-1.3,1.3v12.8c0,16.6-0.4,15.8,7.6,16.1l4.2,0.1l0.2,30.6l0.2,30.7l1.1,0.9c1.6,1.3,4,1.2,5.4-0.3l1.2-1.2V95.2V64.8h4.8c7.2,0,6.7,1,6.8-15.2c0-7.3,0-13.5-0.2-14c-0.8-2-2.3-2.2-15.7-2.2h-12.8L152.9,34.7z M175.1,49.1v7.9h-7.9h-7.9v-7.5c0-4.2,0.1-7.7,0.3-7.9c0.1-0.2,3.7-0.3,7.9-0.3h7.5V49.1z"/><path fill="#000000" d="M204.8,34.2c-3.3,1.2-6.5,4-8.2,7.3c-1.2,2.3-1.4,3.2-1.4,6c0,2.8,0.2,3.7,1.4,5.8c4.8,8.6,14.9,10.3,21.7,3.5c2.9-2.9,4.1-5.7,4.2-9.5C222.4,38.3,212.9,31.3,204.8,34.2z M212.5,42.5c4.1,3,2.3,10-2.8,10.6c-4.3,0.5-7.3-2.4-6.7-6.7c0.2-2.2,2-4.5,3.7-4.9C208.5,41.1,211.3,41.6,212.5,42.5z"/><path fill="#000000" d="M205.1,69.5c-3.9,1.5-6.8,4.1-8.8,7.8c-0.8,1.5-1,2.7-1,5.2c0,4,1.1,6.7,4,9.6c5.7,5.8,13.6,5.7,19.3-0.1c6.7-6.9,4.7-17.2-4.2-21.8C211.8,69,207.4,68.7,205.1,69.5z M211.8,77.5c1.9,0.9,2.8,2.6,2.8,5.4c0,4.1-3.5,6.6-7.5,5.5c-3.6-1-5.2-4.8-3.6-8.5C204.6,77.1,208.5,76,211.8,77.5z"/><path fill="#000000" d="M204.3,105.3c-2.6,0.9-6.4,4.3-7.9,7.3c-1.7,3.2-1.8,7.8-0.2,11c4.4,8.9,14.9,11,21.7,4.4c3-2.9,4.4-5.9,4.4-9.6C222.4,109.2,212.9,102.2,204.3,105.3z M212.4,113.3c2.8,1.7,3.1,6.8,0.6,9.3c-1.1,1.2-1.6,1.3-4.1,1.3s-3-0.1-4.2-1.3c-2.6-2.6-2.3-7.6,0.6-9.3C207.2,112.1,210.4,112.1,212.4,113.3z"/><path fill="#000000" d="M44.1,147.8c-12.4,0.1-12.5,0.1-13.5,1.2l-1,1.1v36.8c0,24.8,0.1,37.1,0.5,37.7c0.3,0.5,0.9,1.1,1.4,1.4c1.3,0.7,191.8,0.7,193,0c0.5-0.3,1.1-0.9,1.4-1.4c0.3-0.6,0.5-13.1,0.5-37.4c0-39.7,0.1-38.4-2.5-39C222.9,147.9,66.4,147.6,44.1,147.8z M53.2,163.6v7.9h-7.9h-7.9v-7.9v-7.9h7.9h7.9V163.6z M76.7,163.6v7.9h-7.9H61v-7.9v-7.9h7.9h7.9V163.6z M100.3,163.6v7.9h-7.9h-7.9v-7.9v-7.9h7.9h7.9V163.6z M123.8,163.6v7.9h-7.6h-7.6v-7.9v-7.9h7.6h7.6V163.6z M147.4,163.6v7.9h-7.6h-7.6v-7.9v-7.9h7.6h7.6L147.4,163.6L147.4,163.6z M171.4,163.6v7.9h-7.9h-7.9v-7.9v-7.9h7.9h7.9V163.6z M195,163.6v7.9h-7.9h-7.9v-7.9v-7.9h7.9h7.9V163.6z M218.5,163.6v7.9h-7.9h-7.9v-7.9v-7.9h7.9h7.9V163.6z M53.2,187.2v7.9h-7.9h-7.9v-7.9v-7.9h7.9h7.9V187.2z M76.7,187.2v7.9h-7.9H61v-7.9v-7.9h7.9h7.9V187.2z M100.3,187.2v7.9h-7.9h-7.9v-7.9v-7.9h7.9h7.9V187.2z M123.8,187.2v7.9h-7.6h-7.6v-7.9v-7.9h7.6h7.6V187.2z M147.4,187.2v7.9h-7.6h-7.6v-7.9v-7.9h7.6h7.6L147.4,187.2L147.4,187.2z M171.4,187.2v7.9h-7.9h-7.9v-7.9v-7.9h7.9h7.9V187.2z M195,187.2v7.9h-7.9h-7.9v-7.9v-7.9h7.9h7.9V187.2z M218.5,187.2v7.9h-7.9h-7.9v-7.9v-7.9h7.9h7.9V187.2z M53.2,210.7v7.9h-7.9h-7.9v-7.9v-7.9h7.9h7.9V210.7z M76.7,210.7v7.9h-7.9H61v-7.9v-7.9h7.9h7.9V210.7z M100.3,210.7v7.9h-7.9h-7.9v-7.9v-7.9h7.9h7.9V210.7z M123.8,210.7v7.9h-7.6h-7.6v-7.9v-7.9h7.6h7.6V210.7z M147.4,210.7v7.9h-7.6h-7.6v-7.9v-7.9h7.6h7.6L147.4,210.7L147.4,210.7z M171.4,210.7v7.9h-7.9h-7.9v-7.9v-7.9h7.9h7.9V210.7z M195,210.7v7.9h-7.9h-7.9v-7.9v-7.9h7.9h7.9V210.7z M218.5,210.7v7.9h-7.9h-7.9v-7.9v-7.9h7.9h7.9V210.7z"/></g></g></g>
</svg>